<?xml version="1.0" encoding="UTF-8"?>
<svg version="1.1" xmlns="http://www.w3.org/2000/svg" width="32" height="32">
<path d="M0 0 C-0.33 1.98 -0.66 3.96 -1 6 C0.98 6.99 2.96 7.98 5 9 C4.7834375 9.8353125 4.7834375 9.8353125 4.5625 10.6875 C4.376875 11.450625 4.19125 12.21375 4 13 C3.7525 13.825 3.505 14.65 3.25 15.5 C2.70729323 18.07960298 2.70729323 18.07960298 4.5 20 C6 22 6 22 5.8125 24.4375 C4.99433362 27.01787089 4.01720548 29.49256756 3 32 C0.43493576 32.16276553 -2.11975422 32.28113984 -4.6875 32.375 C-5.40873047 32.42527344 -6.12996094 32.47554687 -6.87304688 32.52734375 C-12.14140888 32.67168244 -12.14140888 32.67168244 -14.58691406 30.75854492 C-18.62936759 26.05431918 -20.04328216 21.5103652 -19.9375 15.375 C-18.77409771 11.18675176 -17.56853645 9.48246014 -14 7 C-10.1875 7.1875 -10.1875 7.1875 -7 8 C-7.061875 7.236875 -7.12375 6.47375 -7.1875 5.6875 C-7 3 -7 3 -5.75 1.1875 C-4 -0 -4 -0 0 0 Z " fill="#8A1629" transform="translate(23,0)"/>
<path d="M0 0 C-0.33 1.98 -0.66 3.96 -1 6 C0.98 6.99 2.96 7.98 5 9 C4.22792316 12.73170475 2.99688793 15.13174277 0.0625 17.6875 C-4.55091862 19.66467941 -9.04962464 19.2340808 -14 19 C-14 18.01 -14 17.02 -14 16 C-15.65 15.67 -17.3 15.34 -19 15 C-18.6815535 12.05436986 -18.33733608 10.38923394 -16.375 8.125 C-13.00901647 6.53058675 -10.56578737 7.24569883 -7 8 C-7.061875 7.236875 -7.12375 6.47375 -7.1875 5.6875 C-7 3 -7 3 -5.75 1.1875 C-4 -0 -4 -0 0 0 Z " fill="#FF9974" transform="translate(23,0)"/>
<path d="M0 0 C2.97 0.495 2.97 0.495 6 1 C6 1.99 6 2.98 6 4 C7.79240663 3.88610125 9.58394835 3.75852313 11.375 3.625 C12.37273438 3.55539063 13.37046875 3.48578125 14.3984375 3.4140625 C17.15508879 3.23636036 17.15508879 3.23636036 19 1 C19.99 1 20.98 1 22 1 C23.32 3.31 24.64 5.62 26 8 C17.75 8 9.5 8 1 8 C0.67 5.36 0.34 2.72 0 0 Z " fill="#FB2931" transform="translate(3,15)"/>
<path d="M0 0 C6.6 0 13.2 0 20 0 C19.67 1.65 19.34 3.3 19 5 C16.39521117 5.0809313 13.79293347 5.14045434 11.1875 5.1875 C10.08051758 5.22520508 10.08051758 5.22520508 8.95117188 5.26367188 C3.49005469 5.33780469 3.49005469 5.33780469 0.98828125 3.61328125 C0 2 0 2 0 0 Z " fill="#071657" transform="translate(7,27)"/>
<path d="M0 0 C0.66 0 1.32 0 2 0 C2 1.32 2 2.64 2 4 C2.886875 3.79375 3.77375 3.5875 4.6875 3.375 C8.2252711 2.97449761 9.86632967 3.43316484 13 5 C13 5.99 13 6.98 13 8 C9.04 8 5.08 8 1 8 C1 7.01 1 6.02 1 5 C0.01 5 -0.98 5 -2 5 C-1.34 3.35 -0.68 1.7 0 0 Z " fill="#FEEBA3" transform="translate(11,7)"/>
<path d="M0 0 C2.97 0.495 2.97 0.495 6 1 C6 1.99 6 2.98 6 4 C7.79240663 3.88610125 9.58394835 3.75852313 11.375 3.625 C12.37273438 3.55539063 13.37046875 3.48578125 14.3984375 3.4140625 C17.15508879 3.23636036 17.15508879 3.23636036 19 1 C19.99 1 20.98 1 22 1 C22 2.32 22 3.64 22 5 C20.21142578 5.09087891 20.21142578 5.09087891 18.38671875 5.18359375 C16.82030075 5.26801149 15.25389512 5.35265887 13.6875 5.4375 C12.90181641 5.47681641 12.11613281 5.51613281 11.30664062 5.55664062 C10.1706543 5.61948242 10.1706543 5.61948242 9.01171875 5.68359375 C8.31522217 5.72025146 7.61872559 5.75690918 6.90112305 5.79467773 C4.7783428 5.95581153 4.7783428 5.95581153 2 7 C0 4 0 4 0 0 Z " fill="#FC5546" transform="translate(3,15)"/>
<path d="M0 0 C1.32 0 2.64 0 4 0 C3.67 1.98 3.34 3.96 3 6 C4.98 6.99 6.96 7.98 9 9 C8.67 9.66 8.34 10.32 8 11 C7.01 10.34 6.02 9.68 5 9 C2.71351152 8.75892674 2.71351152 8.75892674 0.3125 8.875 C-0.49574219 8.89304687 -1.30398437 8.91109375 -2.13671875 8.9296875 C-2.75160156 8.95289063 -3.36648438 8.97609375 -4 9 C-2.25 2.25 -2.25 2.25 0 0 Z " fill="#31912A" transform="translate(19,0)"/>
<path d="M0 0 C0.845625 0.144375 1.69125 0.28875 2.5625 0.4375 C4.94691513 0.82767702 7.34586297 1.1345863 9.75 1.375 C10.8225 1.58125 11.895 1.7875 13 2 C13.99 3.485 13.99 3.485 15 5 C10.4637333 5.07688588 6.43483405 5.04349036 2 4 C1.34 4 0.68 4 0 4 C0 2.68 0 1.36 0 0 Z " fill="#91D280" transform="translate(13,7)"/>
<path d="M0 0 C0.66 0.33 1.32 0.66 2 1 C1.34 3.31 0.68 5.62 0 8 C0.66 8.33 1.32 8.66 2 9 C-0.31 8.67 -2.62 8.34 -5 8 C-4.64950425 4.75791433 -4.43778819 3.38472296 -1.9375 1.1875 C-1.298125 0.795625 -0.65875 0.40375 0 0 Z " fill="#FAC36B" transform="translate(9,7)"/>
<path d="M0 0 C1.32 1.65 2.64 3.3 4 5 C2.22950311 5.05410687 0.45853151 5.09284119 -1.3125 5.125 C-2.79169922 5.15980469 -2.79169922 5.15980469 -4.30078125 5.1953125 C-7 5 -7 5 -10 3 C-6.7 2.67 -3.4 2.34 0 2 C0 1.34 0 0.68 0 0 Z " fill="#F22228" transform="translate(25,18)"/>
<path d="M0 0 C0.99 0 1.98 0 3 0 C3 0.99 3 1.98 3 3 C6.96 3 10.92 3 15 3 C15 2.01 15 1.02 15 0 C15.99 0.33 16.98 0.66 18 1 C17.01 2.485 17.01 2.485 16 4 C12.8125 4.328125 12.8125 4.328125 9 4.25 C7.741875 4.23453125 6.48375 4.2190625 5.1875 4.203125 C2 4 2 4 0 3 C0 2.01 0 1.02 0 0 Z " fill="#F9CD82" transform="translate(9,12)"/>
<path d="M0 0 C1.32 0 2.64 0 4 0 C3.67 1.98 3.34 3.96 3 6 C2.01 6.33 1.02 6.66 0 7 C0 6.34 0 5.68 0 5 C-0.66 4.67 -1.32 4.34 -2 4 C-1.34 2.68 -0.68 1.36 0 0 Z " fill="#69B464" transform="translate(19,0)"/>
<path d="M0 0 C0.66 0 1.32 0 2 0 C2 1.32 2 2.64 2 4 C3.98 3.67 5.96 3.34 8 3 C8.33 3.66 8.66 4.32 9 5 C5.37 5 1.74 5 -2 5 C-1.34 3.35 -0.68 1.7 0 0 Z " fill="#B9ECA3" transform="translate(11,7)"/>
<path d="M0 0 C-2.55274874 2.45605371 -3.85890643 2.98802939 -7.453125 3.29296875 C-8.70609375 3.25816406 -9.9590625 3.22335938 -11.25 3.1875 C-12.51328125 3.16042969 -13.7765625 3.13335938 -15.078125 3.10546875 C-16.04234375 3.07066406 -17.0065625 3.03585938 -18 3 C-18 2.67 -18 2.34 -18 2 C-17.22914062 1.93941406 -16.45828125 1.87882812 -15.6640625 1.81640625 C-14.15972656 1.69072266 -14.15972656 1.69072266 -12.625 1.5625 C-11.62726562 1.48128906 -10.62953125 1.40007813 -9.6015625 1.31640625 C-6.12454261 0.89352545 -3.63101996 -0.09555316 0 0 Z " fill="#8D1626" transform="translate(29,23)"/>
<path d="M0 0 C2.97 0.495 2.97 0.495 6 1 C6 1.99 6 2.98 6 4 C4.02 4 2.04 4 0 4 C0 2.68 0 1.36 0 0 Z " fill="#F67658" transform="translate(3,15)"/>
<path d="M0 0 C0.66 0.33 1.32 0.66 2 1 C1.34 2.32 0.68 3.64 0 5 C-1.32 5 -2.64 5 -4 5 C-2.25 1.125 -2.25 1.125 0 0 Z " fill="#60AF4E" transform="translate(9,7)"/>
</svg>
